<svg xmlns="http://www.w3.org/2000/svg" width="171" height="171" fill="none" viewBox="0 0 171 171">
  <mask id="a" width="171" height="171" x="0" y="0" maskUnits="userSpaceOnUse" style="mask-type:alpha">
    <path fill="#16163A" d="M170.671 118.502l-14.234-28.469c-.55-.962-1.564-1.455-2.562-1.488V82.63h2.846c1.139 0 1.993-.57 2.278-1.424a2.587 2.587 0 000-2.846L136.793 39.5V33.38l17.936-5.125c1.138-.284 1.992-1.138 1.992-2.277 0-1.14-.569-2.278-1.423-2.847L135.37 11.743a2.586 2.586 0 00-2.847 0c-.073.05-.141.102-.209.155-.66.418-1.086 1.113-1.188 1.992v.005c-.016.133-.026.27-.026.41V39.003l-16.96 29.68H99.784V34.233c.854 0 1.993-.57 2.562-1.424.285-.854.57-1.993 0-2.847L88.112 1.495c-1.139-1.993-4.27-1.993-5.125 0L68.753 29.963a2.585 2.585 0 000 2.847c.57.854 1.708 1.424 2.562 1.424V68.68H56.673L40 39.501V14.304c0-.141-.01-.277-.026-.41v-.006c-.103-.878-.528-1.573-1.188-1.99a2.585 2.585 0 00-3.056-.155L15.8 23.13c-1.138.57-1.708 1.708-1.423 2.847.284 1.138.854 2.277 1.992 2.562l17.936 5.124v5.338l-22.49 39.359a2.585 2.585 0 000 2.846c.57.855 1.423 1.424 2.562 1.424h2.847v5.623c-1.068 0-2.136.498-2.563 1.494L.427 118.217a2.586 2.586 0 000 2.847c.57.854 1.708 1.423 2.562 1.423v45.551c0 1.708 1.139 2.846 2.847 2.846H165.262c1.709 0 2.847-1.138 2.847-2.846v-45.551c.854 0 2.278-.284 2.562-1.138.285-.854.57-1.993 0-2.847zM85.549 9.182l9.68 19.358h-19.36l9.68-19.359zm8.541 25.052v34.163H77.01V34.234H94.09zm69.464 82.56h-9.679v-19.36l9.679 19.36zm-12.526-39.857H116.58l2.847-3.986c.473-.709.547-1.612.235-2.388l14.284-24.942 17.936 31.316h-.854zm-14.234-49.251v-8.54l9.679 5.693-9.679 2.847zM24.626 24.839l9.679-5.694v8.54l-9.68-2.846zm12.526 20.782l14.285 24.942a2.584 2.584 0 00.234 2.388l2.847 3.986H19.217l17.935-31.316zM17.224 97.435v19.359h-9.68l9.68-19.36zm-8.54 25.052h8.54v42.704h-8.54v-42.704zm14.234-2.846v-37.01h28.468v82.56H22.917v-45.55zm34.162-37.01h2.847c1.139 0 1.993-.57 2.562-1.424.57-.854.57-1.992 0-2.846l-1.423-1.993-1.139-1.993h50.96l-2.278 3.986a2.583 2.583 0 000 2.847c.569.854 1.423 1.423 2.562 1.423h2.847v82.56h-8.541v-42.703c1.139 0 1.993-.569 2.562-1.424.285-.854.285-1.992-.284-2.846l-19.928-28.47c-.854-1.423-3.417-1.423-4.555 0l-19.928 28.47c-.57.854-.854 1.992-.285 2.846.57.855 1.424 1.424 2.562 1.424v42.703h-8.54v-82.56zm42.989 34.163H71.03l14.52-20.782 14.519 20.782zm-17.367 48.397v-22.775h5.694v22.775h-5.694zm11.388 0v-25.622c0-1.708-1.139-2.847-2.847-2.847H79.856c-1.709 0-2.847 1.139-2.847 2.847v25.622h-5.694v-42.704h28.469v42.704H94.09zm25.622-82.56h28.469v82.56h-28.469v-82.56zm42.704 82.56h-8.541v-42.704h8.541v42.704z"/>
    <path fill="#16163A" d="M37.152 88.325c-1.708 0-2.847 1.138-2.847 2.846v17.082c0 1.708 1.139 2.847 2.847 2.847S40 109.961 40 108.253V91.171c0-1.707-1.139-2.846-2.847-2.846zM37.152 136.722c-1.708 0-2.847 1.139-2.847 2.847v17.081c0 1.708 1.139 2.847 2.847 2.847S40 158.358 40 156.65v-17.081c0-1.708-1.139-2.847-2.847-2.847zM37.152 116.794c-1.708 0-2.847 1.139-2.847 2.847v8.54c0 1.709 1.139 2.847 2.847 2.847S40 129.89 40 128.181v-8.54c0-1.708-1.139-2.847-2.847-2.847zM133.946 88.325c-1.708 0-2.846 1.138-2.846 2.846v17.082c0 1.708 1.138 2.847 2.846 2.847 1.709 0 2.847-1.139 2.847-2.847V91.171c.001-1.707-1.138-2.846-2.847-2.846zM133.946 136.722c-1.708 0-2.846 1.139-2.846 2.847v17.081c0 1.708 1.138 2.847 2.846 2.847 1.709 0 2.847-1.139 2.847-2.847v-17.081c.001-1.708-1.138-2.847-2.847-2.847zM133.946 116.794c-1.708 0-2.846 1.139-2.846 2.847v8.54c0 1.709 1.138 2.847 2.846 2.847 1.709 0 2.847-1.138 2.847-2.847v-8.54c.001-1.708-1.138-2.847-2.847-2.847zM68.468 99.712c1.708 0 2.847-1.138 2.847-2.846V85.478c0-1.708-1.139-2.847-2.847-2.847s-2.847 1.139-2.847 2.847v11.388c0 1.707 1.139 2.846 2.847 2.846zM102.631 99.712c1.708 0 2.847-1.138 2.847-2.846V85.478c0-1.708-1.139-2.847-2.847-2.847s-2.847 1.139-2.847 2.847v11.388c0 1.707 1.139 2.846 2.847 2.846zM85.55 59.855c1.708 0 2.846-1.138 2.846-2.846V45.62c0-1.708-1.138-2.847-2.847-2.847-1.708 0-2.846 1.14-2.846 2.847V57.01c0 1.708 1.138 2.846 2.846 2.846z"/>
  </mask>
  <g mask="url(#a)">
    <path fill="#FF6C9A" d="M0 0h171v171H0z"/>
  </g>
</svg>
